<?xml version="1.0" encoding="UTF-8" standalone="no"?>
<!-- Created with Inkscape (http://www.inkscape.org/) -->

<svg
   width="79.828751mm"
   height="105.79186mm"
   viewBox="0 0 79.828751 105.79186"
   version="1.1"
   id="svg5"
   inkscape:version="1.1.1 (3bf5ae0d25, 2021-09-20)"
   sodipodi:docname="favicon.svg"
   xmlns:inkscape="http://www.inkscape.org/namespaces/inkscape"
   xmlns:sodipodi="http://sodipodi.sourceforge.net/DTD/sodipodi-0.dtd"
   xmlns="http://www.w3.org/2000/svg"
   xmlns:svg="http://www.w3.org/2000/svg">
  <sodipodi:namedview
     id="namedview7"
     pagecolor="#ffffff"
     bordercolor="#999999"
     borderopacity="1"
     inkscape:pageshadow="0"
     inkscape:pageopacity="0"
     inkscape:pagecheckerboard="0"
     inkscape:document-units="mm"
     showgrid="false"
     inkscape:zoom="0.40945332"
     inkscape:cx="-223.4687"
     inkscape:cy="418.85116"
     inkscape:window-width="1440"
     inkscape:window-height="877"
     inkscape:window-x="-8"
     inkscape:window-y="-8"
     inkscape:window-maximized="1"
     inkscape:current-layer="layer2" />
  <defs
     id="defs2">
    <inkscape:path-effect
       effect="spiro"
       id="path-effect4333"
       is_visible="true"
       lpeversion="1" />
    <inkscape:path-effect
       effect="spiro"
       id="path-effect4048"
       is_visible="true"
       lpeversion="1" />
    <inkscape:path-effect
       effect="spiro"
       id="path-effect3708"
       is_visible="true"
       lpeversion="1" />
  </defs>
  <g
     inkscape:groupmode="layer"
     id="layer2"
     inkscape:label="ajy"
     transform="translate(-52.362152,-56.588423)">
    <path
       style="fill:#ffffff;fill-opacity:1;stroke:none;stroke-width:9.23067;stroke-miterlimit:4;stroke-dasharray:none;stroke-opacity:1"
       d="m 428.00972,602.5684 c -7.72371,-1.1881 -28.33046,-3.06843 -45.79276,-4.17851 -17.46231,-1.11009 -39.99235,-2.85196 -50.06676,-3.87082 -10.07441,-1.01887 -35.90153,-2.29347 -57.3936,-2.83245 -42.43009,-1.06407 -50.89234,-2.22627 -59.48765,-8.17005 -2.49499,-1.72531 -5.62582,-5.41102 -6.95741,-8.19046 -2.34411,-4.89289 -2.38404,-6.41211 -1.25608,-47.79344 0.64075,-23.50696 2.02476,-55.10396 3.07558,-70.21558 1.05082,-15.11161 2.37375,-56.43851 2.93986,-91.83756 0.5661,-35.39905 1.40963,-64.97732 1.87451,-65.7295 0.46487,-0.75219 0.82287,-18.07433 0.79554,-38.49366 l -0.0497,-37.12604 4.86461,-1.30991 c 5.37534,-1.44743 9.0566,-0.77326 10.06032,1.84241 0.36127,0.94145 0.14521,6.65706 -0.48012,12.70136 -1.79904,17.38895 -1.27904,53.91558 0.81482,57.23594 1.68961,2.67931 2.24005,2.74454 22.15861,2.62584 11.23427,-0.067 21.79973,-0.51367 23.4788,-0.99272 1.94447,-0.55478 4.82626,-0.0989 7.93741,1.25561 2.68651,1.16963 8.31902,2.51161 12.51669,2.98216 l 7.63213,0.85556 v 41.44132 c 0,25.61362 0.47188,42.32303 1.23551,43.7499 1.30536,2.43908 8.09623,4.83949 13.72346,4.85089 l 3.35813,0.007 v 23.14421 c 0,14.36109 0.51452,24.27345 1.3558,26.11987 1.57493,3.45658 5.82081,5.68724 10.8252,5.68724 3.34782,0 3.54939,0.31028 4.16486,6.41099 0.35572,3.52604 0.92807,13.31293 1.27187,21.74864 l 0.6251,15.33766 -4.19988,1.51869 c -5.23541,1.89315 -9.3911,7.00847 -8.91119,10.96896 0.19985,1.64936 1.84402,4.09934 3.6537,5.44441 2.78308,2.06853 4.1009,2.2746 8.54799,1.33663 4.30118,-0.90718 5.69634,-1.92725 7.66904,-5.60719 l 2.41137,-4.49828 21.40087,0.22955 c 20.23188,0.21701 21.71863,0.073 27.21852,-2.63531 4.10598,-2.02194 6.75081,-4.45711 8.98916,-8.27657 7.79373,-13.299 -0.69593,-36.31069 -16.78637,-45.50032 l -5.95025,-3.39833 6.17268,-3.99976 c 3.39498,-2.19986 7.65198,-6.23981 9.46003,-8.97764 2.9026,-4.39529 3.2828,-6.13874 3.24849,-14.89622 -0.0333,-8.50708 -0.55458,-10.95081 -3.66342,-17.17477 -2.84282,-5.69138 -4.80976,-7.91489 -9.1197,-10.3093 -5.26437,-2.92466 -6.31561,-3.04588 -25.03338,-2.88683 l -19.53825,0.16602 0.35224,-8.10343 c 0.42027,-9.66864 -2.20255,-15.99642 -7.37379,-17.78992 -8.32924,-2.88878 -15.36386,5.45225 -16.49629,19.55982 -0.66401,8.27218 -1.12936,8.72148 -7.31595,7.06352 l -2.74757,-0.73631 V 341.7769 302.23226 h 8.88973 c 4.88935,0 15.46748,-0.80246 23.50696,-1.78323 8.03947,-0.98078 30.5531,-2.37296 50.03029,-3.09374 19.47719,-0.72079 42.55674,-1.84029 51.2879,-2.4878 8.73115,-0.64751 19.28995,-1.17862 23.46399,-1.18025 9.14677,-0.004 9.14694,-0.003 12.66435,16.74125 2.24209,10.67345 2.5542,17.17991 2.91648,60.7982 0.27053,32.57181 1.09065,56.57568 2.46157,72.04729 2.37006,26.74726 3.09039,68.19987 1.21805,70.09433 -0.84265,0.8526 -4.58472,0.0972 -11.74596,-2.37119 -14.57605,-5.02415 -27.7683,-6.64482 -40.329,-4.95441 -5.4786,0.7373 -11.66062,2.3149 -13.73783,3.50577 -8.5803,4.91914 -12.16043,21.27409 -6.49668,29.67854 4.17273,6.19191 21.61038,14.88658 38.02101,18.95785 15.20232,3.77149 21.59904,8.11936 24.06765,16.35881 1.2271,4.09569 1.01706,5.41103 -1.87149,11.72048 -4.12308,9.00597 -8.41934,14.64894 -12.92808,16.9805 -4.63024,2.39438 -18.31184,2.1418 -36.63174,-0.67626 z"
       id="path8417"
       transform="scale(0.26458333)"
       inkscape:export-filename="C:\Users\hoivater\path8417.png"
       inkscape:export-xdpi="190.87479"
       inkscape:export-ydpi="190.87479" />
    <path
       style="fill:#ffffff;fill-opacity:1;stroke:none;stroke-width:9.23067;stroke-miterlimit:4;stroke-dasharray:none;stroke-opacity:1"
       d="m 238.16754,267.73327 c 0.0248,-11.58459 0.16222,-23.58864 0.30529,-26.67566 l 0.26012,-5.61276 14.6078,-0.78545 c 8.69212,-0.46737 15.88902,-0.29833 17.77158,0.41741 4.19179,1.59372 8.89208,11.92195 9.9256,21.81013 0.71058,6.79848 0.50756,7.86583 -2.00491,10.54023 -1.90186,2.02444 -2.98889,4.98775 -3.40031,9.26948 l -0.60475,6.29375 -6.85195,-0.80433 c -8.12444,-0.95369 -9.7641,-2.33553 -11.66782,-9.83312 -0.78929,-3.10856 -1.81453,-5.62533 -2.27831,-5.59284 -0.46378,0.0325 -2.52881,0.0591 -4.58895,0.0591 -2.96746,0 -3.62888,0.44401 -3.18342,2.137 0.30926,1.17535 1.2407,4.74262 2.06986,7.92728 0.82917,3.18465 2.78498,7.16862 4.34625,8.85327 l 2.83868,3.06298 -8.79496,-0.002 -8.79496,-0.002 z"
       id="path8493"
       transform="scale(0.26458333)"
       inkscape:export-filename="C:\Users\hoivater\path8417.png"
       inkscape:export-xdpi="190.87479"
       inkscape:export-ydpi="190.87479" />
    <path
       style="fill:#ffffff;fill-opacity:1;stroke:none;stroke-width:9.23067;stroke-miterlimit:4;stroke-dasharray:none;stroke-opacity:1"
       d="m 348.16246,432.75091 c -0.35451,-2.27184 -0.98674,-12.71249 -1.40495,-23.20144 l -0.7604,-19.07083 15.77692,-0.87255 c 18.41643,-1.01853 24.31203,0.095 28.81102,5.44176 3.62539,4.30852 6.31469,15.12613 5.21617,20.98178 -1.03734,5.52948 -8.03458,12.21223 -17.14127,16.37083 -5.6373,2.57429 -9.70159,3.42701 -18.53668,3.88914 l -11.31626,0.59192 z"
       id="path8532"
       transform="scale(0.26458333)"
       inkscape:export-filename="C:\Users\hoivater\path8417.png"
       inkscape:export-xdpi="190.87479"
       inkscape:export-ydpi="190.87479" />
    <path
       style="fill:#ffffff;fill-opacity:1;stroke:none;stroke-width:9.23067;stroke-miterlimit:4;stroke-dasharray:none;stroke-opacity:1"
       d="m 360.7171,490.67827 -10.5096,-0.48035 -0.78595,-9.29782 c -0.43228,-5.11379 -0.78596,-15.33846 -0.78596,-22.72148 v -13.42368 l 12.51669,0.70516 c 17.09644,0.96318 24.39012,3.10826 30.34717,8.92517 9.35128,9.13128 13.55216,22.97664 8.96048,29.53217 -4.46307,6.37193 -13.73659,7.94949 -39.74283,6.76083 z"
       id="path8571"
       transform="scale(0.26458333)"
       inkscape:export-filename="C:\Users\hoivater\path8417.png"
       inkscape:export-xdpi="190.87479"
       inkscape:export-ydpi="190.87479" />
    <path
       style="fill:#ffffff;fill-opacity:1;stroke:none;stroke-width:9.23067;stroke-miterlimit:4;stroke-dasharray:none;stroke-opacity:1"
       d="m 332.35372,436.96475 c -0.44775,-0.44775 -0.81409,-10.82444 -0.81409,-23.05931 v -22.24522 l 2.87611,-0.5498 c 2.85765,-0.54628 2.88117,-0.45583 3.66342,14.09248 0.43302,8.05325 0.78731,18.67735 0.78731,23.60911 0,8.57973 -0.12301,8.96684 -2.84933,8.96684 -1.56713,0 -3.21567,-0.36635 -3.66342,-0.8141 z"
       id="path8610"
       transform="scale(0.26458333)"
       inkscape:export-filename="C:\Users\hoivater\path8417.png"
       inkscape:export-xdpi="190.87479"
       inkscape:export-ydpi="190.87479" />
    <path
       style="fill:#ffffff;fill-opacity:1;stroke:none;stroke-width:4.61533;stroke-miterlimit:4;stroke-dasharray:none;stroke-opacity:1"
       d="m 330.96392,379.01146 c 0.19295,-1.93093 0.64235,-4.88456 0.99868,-6.56363 0.73952,-3.48471 3.37156,-9.46384 4.16602,-9.46384 0.29239,0 0.95933,0.61065 1.48209,1.357 0.7282,1.03965 0.94853,3.00296 0.94214,8.39534 -0.0117,9.89656 0.0374,9.78591 -4.3422,9.78591 h -3.59754 z"
       id="path8649"
       transform="scale(0.26458333)"
       inkscape:export-filename="C:\Users\hoivater\path8417.png"
       inkscape:export-xdpi="190.87479"
       inkscape:export-ydpi="190.87479" />
  </g>
  <g
     inkscape:label="Слой 1"
     inkscape:groupmode="layer"
     id="layer1"
     transform="translate(-52.362152,-56.588423)">
    <path
       style="fill:none;stroke:#0033ff;stroke-width:2;stroke-linecap:butt;stroke-linejoin:miter;stroke-miterlimit:4;stroke-dasharray:none;stroke-opacity:1"
       d="m 81.857396,78.303784 c -0.0089,4.58588 -0.02822,9.171739 -0.0581,13.75753 -0.01051,1.613712 -0.02233,3.227557 0,4.841149 0.01758,1.270463 0.05631,2.541791 0,3.811127 -0.0064,0.14422 -0.01402,0.28884 -0.0031,0.4328 0.01088,0.14395 0.04092,0.28819 0.106147,0.41698 0.10372,0.20479 0.291147,0.35831 0.498205,0.45744 0.207058,0.0991 0.434178,0.14841 0.660585,0.18633 0.797958,0.13366 1.611522,0.13567 2.420568,0.12875 3.307404,-0.0283 6.611795,-0.19994 9.914068,-0.38626 1.457957,-0.0823 2.918786,-0.16742 4.37764,-0.103 1.177258,0.052 2.390358,0.21487 3.399108,0.82403 0.50246,0.30342 0.94006,0.71147 1.28754,1.18453 0.61947,0.84334 0.9409,1.86644 1.18454,2.88409 0.17669,0.73801 0.31846,1.48803 0.34463,2.24645 0.0262,0.75842 -0.0662,1.52824 -0.34463,2.2342 -0.40789,1.03435 -1.19243,1.87976 -2.06006,2.57508 -0.89176,0.71466 -1.8869,1.29697 -2.9356,1.75106 -1.274195,0.55173 -2.633317,0.91583 -4.017128,1.03003 -1.763899,0.14557 -3.548057,-0.11345 -5.304668,0.103 -0.593751,0.0732 -1.180113,0.20026 -1.77484,0.26501 -0.594727,0.0648 -1.206915,0.0652 -1.77877,-0.1105 -0.244461,-0.0751 -0.483652,-0.18486 -0.66953,-0.36051 -0.243104,-0.22973 -0.375607,-0.55281 -0.46351,-0.87553 -0.313058,-1.14932 -0.140786,-2.36577 -0.0515,-3.55362 0.29099,-3.87127 -0.327317,-7.76367 -0.103,-11.63937 0.04509,-0.779137 0.124716,-1.559208 0.30901,-2.317577 0.137352,-0.565205 0.332292,-1.115646 0.56651,-1.64806 0.137059,-0.311558 0.289625,-0.620343 0.505736,-0.883306 0.21611,-0.262963 0.502351,-0.479254 0.833314,-0.558734 0.328995,-0.07901 0.685971,-0.01546 0.97853,0.15451 0.299086,0.173759 0.529322,0.451303 0.684932,0.760221 0.155609,0.308918 0.24062,0.649013 0.293598,0.990829 0.137045,0.884217 0.0663,1.785778 0,2.678092 -0.112081,1.508505 -0.210604,3.019485 -0.20601,4.532145 0.0068,2.23535 0.23863,4.46318 0.36052,6.69521 0.29133,5.3348 -0.04523,10.69855 0.46351,16.01702 0.147544,1.54245 0.366167,3.09396 0.20601,4.63515 -0.04124,0.3969 -0.10918,0.79666 -0.275452,1.15941 -0.166271,0.36274 -0.440845,0.68844 -0.806088,0.84915 -0.351366,0.1546 -0.749274,0.14533 -1.13304,0.15451 -0.179182,0.004 -0.359292,0.0131 -0.53701,-0.0101 -0.177718,-0.0233 -0.355379,-0.0811 -0.49302,-0.1959 -0.114875,-0.0958 -0.197104,-0.22828 -0.240282,-0.3715 -0.04318,-0.14322 -0.04817,-0.29673 -0.02294,-0.44418 0.05045,-0.29489 0.217733,-0.55837 0.417734,-0.78087 0.454279,-0.50538 1.087479,-0.83208 1.75105,-0.97853 0.790938,-0.17456 1.612326,-0.10422 2.42058,-0.0515 1.509103,0.0984 3.021628,0.13226 4.532138,0.20601 1.578776,0.0771 3.160348,0.19782 4.738158,0.103 1.31147,-0.0788 2.65307,-0.32171 3.75962,-1.03003 0.83655,-0.53548 1.51016,-1.33425 1.85406,-2.26607 0.3194,-0.86543 0.35039,-1.81847 0.206,-2.72959 -0.26357,-1.66316 -1.09,-3.1935 -2.11157,-4.53215 -0.72757,-0.95339 -1.57686,-1.84057 -2.62658,-2.42057 -0.8586,-0.4744 -1.82075,-0.72704 -2.78109,-0.92703 -2.013819,-0.41938 -4.071691,-0.6269 -6.128696,-0.61802"
       id="path4331"
       sodipodi:nodetypes="cssssscsssssssssscssssssscsscsssssccssssssssssc"
       inkscape:original-d="m 81.857396,78.303784 c -0.1715,4.738315 0.113753,9.01954 -0.0581,13.75753 -0.17184,4.737979 1.7e-4,3.227599 0,4.841149 -1.6e-4,1.61355 1.7e-4,2.540922 0,3.811127 -1.6e-4,1.27021 0.0688,0.56669 0.10301,0.84978 0.0342,0.28309 0.77269,0.42935 1.15879,0.64377 0.386088,0.21442 1.613878,0.086 2.420568,0.12875 0.80669,0.0428 6.60955,-0.25734 9.914068,-0.38626 3.30452,-0.12892 2.91859,-0.0685 4.37764,-0.103 1.459038,-0.0345 2.266238,0.54952 3.399108,0.82403 1.13287,0.2745 0.85853,0.78986 1.28754,1.18453 0.42901,0.39468 0.78986,1.9229 1.18454,2.88409 0.39468,0.9612 1.7e-4,2.98727 0,4.48065 -1.7e-4,1.49338 -1.37321,1.71689 -2.06006,2.57508 -0.68686,0.85819 -1.9569,1.16754 -2.9356,1.75106 -0.978698,0.58352 -2.677918,0.68685 -4.017128,1.03003 -1.33921,0.34318 -3.536278,0.0688 -5.304668,0.103 -1.76839,0.0342 -2.36891,0.10318 -3.55361,0.15451 -1.18471,0.0513 -0.44618,-0.24017 -0.66953,-0.36051 -0.22334,-0.12034 -0.30884,-0.58352 -0.46351,-0.87553 -0.15467,-0.29201 -0.0342,-2.36891 -0.0515,-3.55362 -0.0173,-1.1847 -0.0685,-7.75941 -0.103,-11.63937 -0.0345,-3.879967 0.20617,-1.544887 0.30901,-2.317577 0.10283,-0.77269 0.37784,-1.09853 0.56651,-1.64806 0.18867,-0.54951 0.89287,-0.96119 1.33905,-1.44204 0.44618,-0.48085 0.65252,0.10317 0.97853,0.15451 0.326,0.0513 0.65252,1.16753 0.97853,1.75105 0.326,0.58352 1.7e-4,1.78556 0,2.678092 -1.7e-4,0.892525 -0.13717,3.021595 -0.20601,4.532145 -0.0688,1.51055 0.24051,4.46365 0.36052,6.69521 0.11999,2.23158 0.30917,10.67819 0.46351,16.01702 0.15433,5.33883 0.13751,3.09027 0.20601,4.63515 0.0685,1.54488 -0.72086,1.33921 -1.08154,2.00856 -0.36068,0.66935 -0.75519,0.10318 -1.13304,0.15451 -0.37784,0.0513 -0.68652,-0.13717 -1.03003,-0.20601 -0.34351,-0.0688 0.10317,-1.0642 0.15451,-1.59655 0.0513,-0.53235 1.16753,-0.65218 1.75105,-0.97853 0.58352,-0.32635 1.61389,-0.0342 2.42058,-0.0515 0.80669,-0.0173 3.021598,0.13751 4.532138,0.20601 1.51055,0.0685 3.158938,0.0688 4.738158,0.103 1.57921,0.0342 2.50658,-0.68652 3.75962,-1.03003 1.25304,-0.34351 1.2362,-1.51054 1.85406,-2.26607 0.61785,-0.75553 0.1375,-1.81956 0.206,-2.72959 0.0685,-0.91003 -1.40754,-3.02126 -2.11157,-4.53215 -0.70402,-1.51088 -1.75088,-1.61355 -2.62658,-2.42057 -0.8757,-0.80703 -1.85389,-0.61785 -2.78109,-0.92703 -0.927188,-0.30918 -4.085618,-0.41184 -6.128696,-0.61802"
       inkscape:path-effect="#path-effect4333"
       inkscape:export-filename="C:\Users\hoivater\path8417.png"
       inkscape:export-xdpi="190.87479"
       inkscape:export-ydpi="190.87479" />
    <path
       style="fill:none;stroke:#000000;stroke-width:2;stroke-linecap:butt;stroke-linejoin:miter;stroke-miterlimit:4;stroke-dasharray:none;stroke-opacity:1"
       d="m 57.7671,57.873408 c -0.25137,0.03847 -0.497309,0.112247 -0.728342,0.218503 -0.317649,0.146092 -0.61016,0.35718 -0.819388,0.6373 -0.312186,0.417964 -0.417205,0.954598 -0.455213,1.474895 -0.0478,0.654406 -0.0035,1.311593 0.03641,1.966527 0.203037,3.329304 0.294011,6.666413 0.223596,10.001159 -0.08401,3.978437 -0.397488,7.948075 -0.59227,11.922629 -0.178638,3.645148 -0.257434,7.294666 -0.283259,10.944097 -0.04246,6.000842 0.05817,12.005832 -0.231757,17.999822 -0.215281,4.45078 -0.645627,8.88888 -0.875528,13.33893 -0.262722,5.08535 -0.263397,10.18028 -0.412013,15.27024 -0.07695,2.63546 -0.193567,5.26971 -0.257509,7.90551 -0.01272,0.52437 -0.0232,1.05162 0.0515,1.5708 0.131077,0.91106 0.523661,1.77254 1.055784,2.52358 0.630957,0.89054 1.463317,1.63884 2.420577,2.16307 1.03663,0.56769 2.196233,0.86618 3.347607,1.13303 1.334467,0.30929 2.679921,0.58391 4.042881,0.72103 2.171008,0.21841 4.359569,0.0858 6.540708,0.0257 3.013112,-0.083 6.02976,-0.0271 9.03854,0.15451 4.299999,0.25954 8.580404,0.77532 12.875418,1.10729 6.991105,0.54036 14.032688,0.59506 20.961168,1.6738 2.2732,0.35393 4.55028,0.8191 6.84973,0.74677 0.94161,-0.0296 1.89625,-0.15415 2.75533,-0.54077 0.73185,-0.32936 1.37333,-0.84137 1.90556,-1.44204 0.80765,-0.91151 1.36312,-2.01293 1.93131,-3.0901 0.26747,-0.50707 0.54036,-1.01307 0.74995,-1.54667 0.20959,-0.5336 0.35539,-1.09891 0.35734,-1.67219 0.002,-0.61812 -0.16277,-1.22625 -0.38626,-1.80256 -0.37085,-0.95631 -0.91574,-1.8584 -1.6738,-2.54933 -1.18625,-1.0812 -2.78903,-1.56572 -4.35189,-1.93131 -1.16187,-0.27179 -2.33667,-0.49636 -3.47637,-0.84978 -1.73886,-0.53922 -3.3733,-1.37159 -4.94415,-2.29182 -0.52864,-0.30969 -1.05474,-0.63239 -1.50884,-1.04368 -0.45411,-0.41129 -0.83639,-0.91951 -1.01475,-1.50565 -0.1815,-0.59647 -0.14326,-1.23737 -0.0515,-1.85406 0.0846,-0.56837 0.21415,-1.13333 0.43827,-1.66245 0.22412,-0.52912 0.54611,-1.02289 0.97802,-1.4019 0.5092,-0.44683 1.15038,-0.71797 1.80256,-0.90127 1.22562,-0.34447 2.51231,-0.40108 3.78537,-0.41202 1.12644,-0.01 2.25558,0.0149 3.37337,0.1545 1.23323,0.15403 2.44645,0.44753 3.63086,0.82404 0.93479,0.29716 1.8527,0.64611 2.75534,1.03002 0.43967,0.187 0.88776,0.38528 1.3648,0.41202 0.4889,0.0274 0.99417,-0.14165 1.33904,-0.48927 0.28971,-0.29202 0.45239,-0.68633 0.56651,-1.08153 0.28341,-0.98148 0.30748,-2.01702 0.30901,-3.0386 0.004,-2.52501 -0.11789,-5.0483 -0.23175,-7.57074 -0.0519,-1.15063 -0.10227,-2.30146 -0.18026,-3.45061 -0.17676,-2.60449 -0.49544,-5.19783 -0.66952,-7.8025 -0.10257,-1.53465 -0.15487,-3.07217 -0.20601,-4.6094 -0.15245,-4.58219 -0.29481,-9.16708 -0.20601,-13.750942 0.0782,-4.036112 0.33234,-8.114403 -0.43776,-12.077137 -0.20748,-1.067644 -0.48844,-2.120657 -0.66952,-3.193095 -0.0858,-0.508139 -0.14937,-1.021516 -0.28459,-1.518792 -0.13522,-0.497275 -0.3474,-0.983883 -0.69394,-1.3653 -0.33559,-0.369369 -0.78515,-0.624629 -1.26179,-0.772525 -0.89209,-0.276809 -1.85089,-0.187727 -2.78109,-0.103004 -4.6256,0.421302 -9.26538,0.667173 -13.90545,0.875529 -2.00805,0.09017 -4.01647,0.173332 -6.02569,0.231757 -3.58365,0.104207 -7.176523,0.13016 -10.738098,0.540768 -1.863019,0.214785 -3.715736,0.534659 -5.587918,0.64377 -1.294693,0.07546 -2.593678,0.04971 -3.88837,-0.02575 -1.522252,-0.08873 -3.039534,-0.24606 -4.55791,-0.386262 -1.223215,-0.112948 -2.493615,-0.228952 -3.55361,-0.849776 -0.392163,-0.229685 -0.75264,-0.532676 -0.97854,-0.927032 -0.170795,-0.298159 -0.258675,-0.637906 -0.299763,-0.979053 -0.04109,-0.341148 -0.03712,-0.685902 -0.035,-1.029509 0.0056,-0.911613 0.0063,-1.861714 0.41202,-2.678087 0.17633,-0.354807 0.438784,-0.683194 0.79827,-0.849777 0.166878,-0.07733 0.351567,-0.117571 0.53536,-0.110621 0.183793,0.0069 0.36634,0.0617 0.52043,0.162121 0.191092,0.124535 0.333178,0.315089 0.425983,0.523445 0.09281,0.208356 0.139052,0.434633 0.166277,0.661093 0.03809,0.316835 0.03996,0.639733 -0.0182,0.953505 -0.05816,0.313772 -0.177808,0.618605 -0.368064,0.874804 -0.345878,0.465761 -0.889948,0.734546 -1.41629,0.978531 -0.686956,0.318438 -1.389723,0.62673 -2.13732,0.746774 -0.79031,0.126903 -1.596966,0.03834 -2.39483,-0.02575 -0.391331,-0.03143 -0.784227,-0.05705 -1.169871,-0.130587 -0.385643,-0.07353 -0.766535,-0.196992 -1.096199,-0.410181 -0.382111,-0.247106 -0.682211,-0.606991 -0.90703,-1.002626 C 67.123955,73.863586 66.970579,73.43154 66.839508,72.995775 66.611819,72.238792 66.447961,71.462621 66.350242,70.6782"
       id="path3706"
       inkscape:path-effect="#path-effect3708"
       inkscape:original-d="m 57.7671,57.873408 c -0.242613,0.073 -0.485394,0.145837 -0.728342,0.218503 -0.242951,0.07267 -0.54609,0.425035 -0.819388,0.6373 -0.273297,0.212265 -0.303307,0.983432 -0.455213,1.474895 -0.151908,0.491464 0.02445,1.311187 0.03641,1.966527 0.01198,0.65534 0.149233,6.667608 0.223596,10.001159 0.07436,3.333552 -0.394678,7.948591 -0.59227,11.922629 -0.197591,3.974038 -0.188671,7.296228 -0.283259,10.944097 -0.09459,3.64786 -0.154337,12.000052 -0.231757,17.999822 -0.07742,5.99978 -0.583517,8.89279 -0.875528,13.33893 -0.292012,4.44614 -0.274507,10.18033 -0.412013,15.27024 -0.137508,5.08991 -0.171504,5.27051 -0.257509,7.90551 -0.08601,2.635 0.03451,1.04736 0.0515,1.5708 0.017,0.52343 0.704025,1.68255 1.055784,2.52358 0.35176,0.84102 1.613887,1.44221 2.420577,2.16307 0.806691,0.72085 2.231907,0.75552 3.347607,1.13303 1.115702,0.37751 2.695422,0.48085 4.042881,0.72103 1.347458,0.24017 4.360638,0.0173 6.540708,0.0257 2.18007,0.008 6.02586,0.10318 9.03854,0.15451 3.01269,0.0513 8.583788,0.73835 12.875418,1.10729 4.29163,0.36892 13.974278,1.11603 20.961168,1.6738 6.98689,0.55776 4.56665,0.49801 6.84973,0.74677 2.28306,0.24876 1.83706,-0.36034 2.75533,-0.54077 0.91828,-0.18042 1.27054,-0.96119 1.90556,-1.44204 0.63502,-0.48085 1.28771,-2.0599 1.93131,-3.0901 0.64361,-1.0302 0.73836,-2.14573 1.10729,-3.21886 0.36892,-1.07311 -0.25734,-1.20153 -0.38626,-1.80256 -0.12893,-0.60101 -1.11571,-1.69938 -1.6738,-2.54933 -0.55811,-0.84994 -2.9011,-1.28737 -4.35189,-1.93131 -1.4508,-0.64394 -2.31741,-0.56635 -3.47637,-0.84978 -1.15895,-0.28342 -3.29593,-1.52771 -4.94415,-2.29182 -1.64823,-0.7641 -1.68223,-1.69938 -2.52359,-2.54933 -0.84136,-0.84995 -0.0342,-1.23587 -0.0515,-1.85406 -0.0173,-0.61819 0.94437,-2.04273 1.41629,-3.06435 0.47194,-1.02161 1.20188,-0.60068 1.80256,-0.90127 0.60069,-0.3006 2.52375,-0.27451 3.78537,-0.41202 1.26162,-0.13751 2.24908,0.10318 3.37337,0.1545 1.12428,0.0513 2.42074,0.54953 3.63086,0.82404 1.21012,0.2745 1.83706,0.68685 2.75534,1.03002 0.91828,0.34318 0.91003,0.27485 1.3648,0.41202 0.45476,0.13717 0.89286,-0.32601 1.33904,-0.48927 0.44618,-0.16325 0.37785,-0.72085 0.56651,-1.08153 0.18868,-0.36068 0.20618,-2.02557 0.30901,-3.0386 0.10284,-1.01303 -0.15433,-5.04699 -0.23175,-7.57074 -0.0774,-2.52375 -0.12,-2.30024 -0.18026,-3.45061 -0.0603,-1.15037 -0.44618,-5.2015 -0.66952,-7.8025 -0.22334,-2.601 -0.13717,-3.07277 -0.20601,-4.6094 -0.0688,-1.53663 -0.13716,-9.16712 -0.20601,-13.750942 -0.0688,-4.583809 -0.29167,-8.051259 -0.43776,-12.077137 -0.14609,-4.025873 -0.44618,-2.128555 -0.66952,-3.193095 -0.22334,-1.064536 -0.65219,-1.922558 -0.97853,-2.884092 -0.32635,-0.961532 -0.84103,-0.514847 -1.26179,-0.772525 -0.42077,-0.257676 -1.85389,-0.0685 -2.78109,-0.103004 -0.9272,-0.0345 -9.27013,0.583855 -13.90545,0.875529 -4.63531,0.291675 -4.01696,0.154674 -6.02569,0.231757 -2.00873,0.07708 -7.158558,0.360681 -10.738098,0.540768 -3.57952,0.180088 -3.72511,0.429349 -5.587918,0.64377 -1.86281,0.214422 -2.59208,-0.017 -3.88837,-0.02575 -1.2963,-0.0088 -3.03844,-0.25734 -4.55791,-0.386262 -1.51947,-0.128923 -2.36891,-0.566351 -3.55361,-0.849776 -1.18471,-0.283429 -0.65219,-0.617852 -0.97854,-0.927032 -0.32634,-0.309178 -0.223,-1.338874 -0.33476,-2.008562 -0.11175,-0.669691 0.27485,-1.785223 0.41202,-2.678087 0.13716,-0.892864 0.53235,-0.56635 0.79827,-0.849777 0.26593,-0.283428 0.70403,0.0345 1.05579,0.0515 0.35176,0.017 0.39501,0.789861 0.59226,1.184538 0.19726,0.394678 -0.25733,1.219041 -0.38626,1.828309 -0.12892,0.609267 -0.94403,0.652522 -1.41629,0.978531 -0.47227,0.326008 -1.42471,0.498019 -2.13732,0.746774 -0.71261,0.248757 -1.59638,-0.017 -2.39483,-0.02575 -0.79844,-0.0088 -1.51054,-0.360344 -2.26607,-0.540768 C 67.500276,75.081423 67.311776,73.7513 66.839508,72.995775 66.36724,72.240248 66.5135,71.450894 66.350242,70.6782"
       inkscape:export-filename="C:\Users\hoivater\path8417.png"
       inkscape:export-xdpi="190.87479"
       inkscape:export-ydpi="190.87479" />
    <path
       style="fill:none;stroke:#0637ff;stroke-width:2;stroke-linecap:butt;stroke-linejoin:miter;stroke-miterlimit:4;stroke-dasharray:none;stroke-opacity:1"
       d="m 57.7671,57.873408 c 0.78865,-0.253702 1.630786,-0.339764 2.454451,-0.250832 0.310829,0.03356 0.621557,0.09249 0.910007,0.213062 0.288449,0.120573 0.554917,0.306076 0.738047,0.559462 0.254733,0.352458 0.328679,0.802333 0.36051,1.23604 0.0946,1.289016 -0.117907,2.577702 -0.257507,3.862624 -0.169006,1.555583 -0.231553,3.122122 -0.206006,4.68665 0.03899,2.3878 0.282569,4.781816 0.0515,7.158729 -0.06033,0.620537 -0.150481,1.264223 0.0515,1.854061 0.03397,0.09922 0.07799,0.198662 0.154504,0.270382 0.04789,0.04489 0.106778,0.07701 0.168626,0.09902 0.06185,0.02201 0.126777,0.03422 0.191887,0.04261 0.251689,0.0324 0.50678,0.0085 0.759648,-0.01287 1.048972,-0.08851 2.101781,-0.131747 3.154477,-0.128755 1.717318,0.0049 3.437016,0.132623 5.15016,0.01287 0.624911,-0.04368 1.259612,-0.123573 1.82831,-0.386261 0.298114,-0.137702 0.575105,-0.32563 0.79828,-0.566518 0.472245,-0.509726 0.669158,-1.20883 0.84977,-1.879811 0.212853,-0.790757 0.424783,-1.584178 0.54077,-2.394826 0.127927,-0.894097 0.137915,-1.80068 0.12875,-2.703836 -0.01316,-1.297085 -0.06696,-2.605387 -0.38626,-3.862625 -0.272636,-1.073489 -0.735904,-2.093434 -1.31329,-3.038597 -0.284591,-0.465866 -0.607193,-0.924924 -1.05578,-1.23604 -0.472981,-0.328034 -1.05145,-0.467041 -1.62231,-0.540767 -0.716318,-0.09251 -1.441958,-0.09251 -2.16306,-0.0515 -0.635642,0.03615 -1.269375,0.104002 -1.905563,0.128754 -0.755471,0.02939 -1.514195,-0.002 -2.266074,0.07725 -0.447321,0.04714 -0.909075,0.132085 -1.339042,0 C 63.255718,60.933308 63.002926,60.751547 62.796631,60.53242 62.4174,60.129601 62.185315,59.591164 62.15286,59.038872"
       id="path4046"
       inkscape:path-effect="#path-effect4048"
       inkscape:original-d="m 57.7671,57.873408 c 0.818319,-0.08344 1.636469,-0.167053 2.454451,-0.250832 0.817982,-0.08378 1.098871,0.515185 1.648054,0.772524 0.549181,0.25734 0.240509,0.824196 0.36051,1.23604 0.120002,0.411845 -0.171503,2.575251 -0.257507,3.862624 -0.08601,1.287372 -0.13717,3.124603 -0.206006,4.68665 -0.06884,1.562049 0.0345,4.772656 0.0515,7.158729 0.017,2.386075 0.0345,1.236208 0.0515,1.854061 0.017,0.617851 0.103172,0.180423 0.154504,0.270382 0.05133,0.08996 0.240511,0.09459 0.360513,0.141631 0.120001,0.04704 0.506601,-0.0084 0.759648,-0.01287 0.253048,-0.0045 2.103153,-0.08567 3.154477,-0.128755 1.051323,-0.04308 3.43361,0.0088 5.15016,0.01287 1.71656,0.0041 1.21904,-0.257338 1.82831,-0.386261 0.60927,-0.128924 0.53235,-0.37751 0.79828,-0.566518 0.26592,-0.189009 0.56668,-1.253038 0.84977,-1.879811 0.28309,-0.626772 0.36068,-1.596383 0.54077,-2.394826 0.18009,-0.798444 0.086,-1.802389 0.12875,-2.703836 0.0428,-0.901448 -0.25734,-2.574915 -0.38626,-3.862625 -0.12892,-1.287709 -0.87536,-2.025563 -1.31329,-3.038597 -0.43793,-1.013035 -0.70369,-0.823858 -1.05578,-1.23604 -0.3521,-0.412182 -1.08137,-0.360342 -1.62231,-0.540767 -0.54093,-0.180425 -1.44187,-0.03416 -2.16306,-0.0515 -0.72119,-0.01734 -1.270208,0.08601 -1.905563,0.128754 -0.635356,0.04275 -1.510547,0.05167 -2.266074,0.07725 -0.755525,0.02558 -0.892525,1.69e-4 -1.339042,0 -0.446516,-1.68e-4 -0.497681,-0.326008 -0.746774,-0.489265 -0.249093,-0.163257 -0.429011,-0.99553 -0.643771,-1.493548"
       inkscape:export-filename="C:\Users\hoivater\path8417.png"
       inkscape:export-xdpi="190.87479"
       inkscape:export-ydpi="190.87479" />
  </g>
</svg>
